<svg width="51" height="51" viewBox="0 0 51 51" fill="none" xmlns="http://www.w3.org/2000/svg">
<mask id="mask0_50_10" style="mask-type:alpha" maskUnits="userSpaceOnUse" x="0" y="0" width="51" height="51">
<rect x="0.388885" y="0.388672" width="50.2222" height="50.2222" fill="white"/>
</mask>
<g mask="url(#mask0_50_10)">
<path fill-rule="evenodd" clip-rule="evenodd" d="M42.2406 8.75879H12.9443C10.6362 8.75879 8.75912 10.6358 8.75912 12.944V23.4069H12.9443V17.1292L26.3369 27.1736C26.7094 27.4519 27.1509 27.5921 27.5925 27.5921C28.034 27.5921 28.4755 27.4519 28.848 27.1736L42.2406 17.1292V35.9625H25.4999V40.1477H42.2406C44.5487 40.1477 46.4258 38.2706 46.4258 35.9625V12.944C46.4258 10.6358 44.5487 8.75879 42.2406 8.75879V8.75879ZM27.5925 22.8838L14.338 12.944H40.847L27.5925 22.8838V22.8838Z" fill="#556EE6"/>
<path fill-rule="evenodd" clip-rule="evenodd" d="M4.57419 25.5H19.2223V29.6852H4.57419V25.5ZM8.7595 31.7778H21.3151V35.963H8.7595V31.7778ZM15.0373 38.0556H23.4076V42.2407H15.0373V38.0556Z" fill="#556EE6"/>
</g>
</svg>
