<svg width="77" height="77" viewBox="0 0 77 77" fill="none" xmlns="http://www.w3.org/2000/svg">
<rect width="77" height="77" rx="10" fill="#00FF09" fill-opacity="0.07"/>
<g clip-path="url(#clip0_254_1139)">
<path d="M27.5 33L34.088 42.222C34.3592 42.6017 34.7138 42.9141 35.1247 43.1353C35.5355 43.3565 35.9915 43.4806 36.4578 43.498C36.924 43.5153 37.3881 43.4256 37.8142 43.2356C38.2404 43.0456 38.6173 42.7605 38.916 42.402L60.5 16.498" stroke="#06C960" stroke-width="3" stroke-linecap="round" stroke-linejoin="round"/>
<path d="M47.566 22.6478C43.288 20.0004 38.2009 18.9788 33.2326 19.7695C28.2642 20.5601 23.7455 23.1102 20.5006 26.9548C17.2557 30.7993 15.5008 35.6821 15.5559 40.7127C15.6111 45.7433 17.4726 50.5865 20.801 54.359C24.1294 58.1315 28.7029 60.582 33.6874 61.2635C38.6719 61.945 43.7353 60.8122 47.9542 58.0716C52.1732 55.3311 55.2664 51.1653 56.67 46.3342C58.0735 41.503 57.6937 36.3283 55.6 31.7538" stroke="#06C960" stroke-width="3" stroke-linecap="round" stroke-linejoin="round"/>
</g>
<defs>
<clipPath id="clip0_254_1139">
<rect width="48" height="48" fill="white" transform="translate(14 15)"/>
</clipPath>
</defs>
</svg>
