<svg width="77" height="77" viewBox="0 0 77 77" fill="none" xmlns="http://www.w3.org/2000/svg">
<rect width="77" height="77" rx="10" fill="#FF2B44" fill-opacity="0.07"/>
<path d="M54.5 40.5V19.5C54.5 18.7044 54.1839 17.9413 53.6213 17.3787C53.0587 16.8161 52.2956 16.5 51.5 16.5H24.5C23.7044 16.5 22.9413 16.8161 22.3787 17.3787C21.8161 17.9413 21.5 18.7044 21.5 19.5V40.5" stroke="#FF2B44" stroke-opacity="0.5" stroke-width="3" stroke-linecap="round" stroke-linejoin="round"/>
<path d="M58.0001 37.92C58.2262 37.7485 58.4952 37.6428 58.7776 37.6146C59.0599 37.5863 59.3446 37.6367 59.6001 37.76C59.854 37.8791 60.0683 38.0688 60.2173 38.3064C60.3662 38.544 60.4436 38.8195 60.4401 39.1V58.5C60.4401 59.2956 60.124 60.0587 59.5614 60.6213C58.9988 61.1839 58.2358 61.5 57.4401 61.5H18.5001C17.7045 61.5 16.9414 61.1839 16.3788 60.6213C15.8162 60.0587 15.5001 59.2956 15.5001 58.5V39.1C15.4966 38.8195 15.574 38.544 15.723 38.3064C15.8719 38.0688 16.0862 37.8791 16.3401 37.76C16.5957 37.6367 16.8803 37.5863 17.1627 37.6146C17.445 37.6428 17.714 37.7485 17.9401 37.92L34.3001 49.72C35.3561 50.5472 36.6587 50.9966 38.0001 50.9966C39.3415 50.9966 40.6442 50.5472 41.7001 49.72L58.0001 37.92Z" fill="#FF2B44"/>
<path d="M29.5 23.5H36.5" stroke="#FF2B44" stroke-width="3" stroke-linecap="round" stroke-linejoin="round"/>
<path d="M29.5 30.5H46.5" stroke="#FF2B44" stroke-width="3" stroke-linecap="round" stroke-linejoin="round"/>
<path d="M29.5 37.5H46.5" stroke="#FF2B44" stroke-width="3" stroke-linecap="round" stroke-linejoin="round"/>
</svg>
